<svg width="70" height="14" viewBox="0 0 70 14" xmlns="http://www.w3.org/2000/svg"><path d="M60.441 8.249c0 2.726 1.958 4.788 4.77 4.788 2.814 0 4.789-2.062 4.789-4.788 0-2.726-1.975-4.806-4.788-4.806s-4.77 2.08-4.77 4.806zm2.971 0c0-1.153.42-2.534 1.8-2.534 1.38 0 1.818 1.38 1.818 2.534 0 1.153-.437 2.516-1.818 2.516-1.38 0-1.8-1.363-1.8-2.516zm-3.82-4.544h-1.835V.962h-2.97v2.743h-1.503v2.291h1.503v3.668c0 2.464.761 3.198 2.771 3.198.542 0 1.602-.353 2.034-.888v-1.383c-.262 0-.524.034-.769.034-.646 0-1.066-.157-1.066-.874V5.996h1.835v-2.29zm-13.511 9.07h2.97V8.282c0-1.136.813-2.287 3.153-2.287v-2.29c-2.198 0-2.768.436-3.206 1.59l-.034-1.59H46.08v9.068zM35.376 8.248c0 2.726 1.958 4.788 4.77 4.788 2.814 0 4.789-2.062 4.789-4.788 0-2.726-1.975-4.806-4.788-4.806s-4.77 2.08-4.77 4.806zm2.97 0c0-1.153.42-2.534 1.8-2.534 1.381 0 1.818 1.38 1.818 2.534 0 1.153-.437 2.516-1.817 2.516s-1.8-1.363-1.8-2.516zM27.786 2.9h2.184c.996 0 1.748.472 1.748 1.643 0 1.135-.734 1.555-1.748 1.555h-2.184V2.9zm-3.25 9.873h3.25V8.615h2.674c2.743 0 4.508-1.205 4.508-4.298 0-2.954-2.184-4.02-4.508-4.02h-5.925v12.477zM19.591 4.02C19.576 3.845 19 0 14.578 0c-3.74 0-5.942 2.884-5.942 6.536 0 3.652 2.202 6.536 5.942 6.536 2.743 0 4.945-2.185 5.225-5.155h-.77c-.14 2.324-2.027 4.491-4.455 4.491-3.268 0-5.173-2.674-5.173-5.872S11.31.664 14.578.664c2.08 0 3.914 1.259 4.246 3.356h.768zM7.13 6.624V5.96H.77V.962h7.059V.298H0v12.476h.77v-6.15h6.36z" fill="#FFF" fill-rule="evenodd"/></svg>