<?xml version="1.0" standalone="no"?>
<!DOCTYPE svg PUBLIC "-//W3C//DTD SVG 20010904//EN"
 "http://www.w3.org/TR/2001/REC-SVG-20010904/DTD/svg10.dtd">
<svg version="1.0" xmlns="http://www.w3.org/2000/svg"
 width="2504.000000pt" height="3335.000000pt" viewBox="0 0 2504.000000 3335.000000"
 preserveAspectRatio="xMidYMid meet">

<g transform="translate(0.000000,3335.000000) scale(0.100000,-0.100000)"
fill="#000000" stroke="none">
<path d="M12675 32751 c-16 -5 -71 -20 -122 -34 -122 -33 -183 -68 -249 -141
-90 -100 -245 -318 -304 -426 -34 -63 -82 -132 -124 -179 -37 -42 -88 -106
-112 -143 -59 -91 -99 -118 -236 -157 -195 -56 -456 -170 -588 -256 -121 -78
-163 -146 -168 -267 -4 -86 -6 -87 -72 -68 -19 6 -73 15 -120 21 -46 5 -120
21 -165 34 -44 13 -105 31 -135 39 -30 8 -80 33 -110 55 -205 147 -192 131
-252 311 -22 69 -49 145 -60 168 -23 56 -117 154 -238 250 -52 42 -122 101
-155 131 -79 73 -200 136 -243 126 -72 -15 -114 -87 -88 -149 15 -36 61 -78
118 -107 22 -11 44 -32 50 -47 6 -15 15 -83 19 -152 15 -228 53 -334 159 -445
37 -38 86 -95 110 -125 39 -50 41 -55 22 -58 -21 -3 -216 70 -307 116 -30 15
-87 62 -140 116 -80 81 -121 125 -280 306 -22 25 -55 59 -74 77 -49 45 -212
133 -306 165 -72 25 -94 28 -218 28 -151 0 -184 -9 -206 -57 -34 -74 5 -142
96 -168 73 -21 144 -62 218 -126 33 -28 105 -84 160 -125 193 -144 194 -145
272 -263 42 -63 96 -142 120 -175 l45 -61 -27 -3 c-18 -2 -60 12 -119 42 -50
25 -147 70 -216 101 -163 73 -175 80 -240 135 -58 49 -237 184 -280 211 -14 8
-72 34 -130 56 -58 23 -141 58 -185 77 -118 52 -197 70 -241 56 -64 -21 -91
-97 -59 -160 18 -34 47 -51 130 -75 33 -10 125 -49 205 -88 80 -38 164 -78
187 -88 29 -12 54 -34 75 -66 84 -122 124 -151 265 -195 125 -38 372 -149 425
-190 32 -24 9 -24 -85 2 -47 13 -120 23 -209 27 l-137 6 -35 -35 c-40 -40 -46
-79 -21 -128 19 -37 55 -55 122 -64 28 -3 82 -21 120 -38 l68 -32 180 0 c99 0
252 4 340 8 140 7 180 6 315 -14 85 -12 159 -25 163 -30 5 -4 -28 -27 -72 -50
-46 -24 -91 -55 -102 -72 -44 -61 -29 -146 32 -191 40 -29 161 -43 264 -30 72
9 105 20 203 67 64 32 144 74 177 95 100 63 154 93 296 162 74 36 184 94 243
129 60 35 125 69 145 76 24 9 93 13 207 14 165 0 171 1 192 23 12 13 27 37 33
55 l11 32 100 0 c92 0 99 -1 93 -17 -36 -81 -47 -132 -42 -189 9 -120 79 -222
187 -273 44 -21 70 -26 130 -26 66 0 82 4 137 34 35 18 101 68 147 111 63 57
112 91 188 129 98 50 110 53 233 67 160 18 311 55 390 94 61 30 132 91 197
168 l37 44 51 -29 c37 -21 56 -39 72 -72 20 -42 21 -52 15 -305 -6 -246 -5
-263 14 -305 22 -51 21 -60 -30 -144 -37 -59 -40 -62 -87 -69 -44 -7 -101 -1
-189 18 -16 3 -214 10 -440 14 -488 9 -615 19 -750 57 l-100 28 -490 0 c-523
0 -624 -7 -790 -55 -135 -40 -253 -50 -576 -50 l-306 0 -99 48 c-54 27 -133
72 -174 100 -79 53 -268 143 -410 195 -76 28 -97 31 -190 30 -129 0 -278 -26
-346 -59 -114 -54 -197 -166 -211 -281 -7 -61 11 -162 38 -215 10 -20 19 -39
19 -41 0 -3 -37 -7 -82 -9 -130 -7 -213 -63 -267 -177 -48 -103 -26 -267 59
-449 72 -154 129 -228 263 -339 43 -36 102 -98 132 -138 29 -40 76 -92 105
-116 28 -24 85 -88 126 -142 l75 -99 -26 -111 c-46 -193 -63 -226 -218 -438
-51 -70 -100 -141 -110 -159 l-17 -32 -75 96 c-42 53 -110 145 -153 204 -101
141 -173 210 -269 260 -100 51 -171 72 -248 72 -165 0 -285 -93 -321 -248 -23
-99 17 -215 100 -289 23 -20 71 -65 108 -99 l68 -62 -93 -94 c-154 -157 -195
-269 -148 -403 12 -33 26 -61 31 -63 6 -2 10 -10 10 -17 0 -17 61 -70 113 -97
34 -18 59 -22 132 -23 82 0 95 3 144 30 29 16 75 54 102 84 27 30 51 53 53 50
2 -2 24 -31 49 -65 96 -131 248 -204 427 -204 212 0 399 96 477 246 15 29 31
54 36 54 4 0 7 -37 7 -82 0 -80 22 -319 36 -393 8 -44 16 -49 77 -46 118 5
274 -58 400 -160 95 -77 279 -159 359 -159 31 0 67 7 87 18 30 15 38 28 72
125 52 150 96 210 191 258 91 46 199 44 320 -7 69 -29 158 -31 325 -9 91 12
125 21 185 51 40 21 78 45 85 53 7 9 51 94 98 190 116 233 173 291 319 321
118 24 219 -11 364 -125 94 -75 245 -251 299 -348 38 -70 92 -127 119 -127 19
0 90 36 131 66 17 13 59 60 93 103 69 90 139 142 219 165 150 43 275 -5 466
-182 82 -75 111 -115 134 -185 16 -49 20 -54 85 -86 67 -33 70 -33 102 -17 56
26 139 171 175 303 29 106 65 169 122 215 110 87 221 88 380 6 178 -94 236
-171 258 -348 15 -113 23 -125 125 -175 55 -27 95 -39 164 -48 110 -14 116
-11 251 104 144 123 236 156 360 130 61 -13 169 -74 246 -139 109 -91 143
-227 105 -407 -11 -49 -17 -93 -13 -97 3 -4 48 -10 98 -14 l93 -7 92 48 c113
58 116 61 182 155 64 91 157 179 220 208 26 13 74 25 107 29 48 5 64 11 80 32
44 56 91 173 115 288 14 65 27 130 31 146 7 33 23 36 23 4 0 -12 11 -72 25
-132 15 -67 25 -141 25 -190 0 -111 17 -236 40 -298 46 -120 178 -246 299
-284 55 -18 341 -19 432 -3 70 13 257 81 314 115 64 37 124 109 167 202 49
104 70 195 100 433 l24 185 49 6 c28 4 78 14 111 23 74 19 242 21 360 4 166
-24 311 29 445 161 89 88 114 144 113 251 -2 237 -268 377 -465 244 l-51 -34
-165 0 -166 0 7 68 c4 37 16 119 28 182 16 87 22 154 22 275 0 143 -2 166 -22
216 -61 153 -219 237 -367 194 -118 -34 -208 -121 -287 -280 -32 -62 -106
-296 -114 -360 -6 -37 -17 -59 -56 -103 -26 -32 -61 -82 -76 -112 -23 -48 -27
-67 -27 -145 0 -77 4 -99 29 -155 47 -105 47 -159 -6 -570 -11 -91 -24 -169
-28 -173 -4 -5 -24 -12 -44 -17 -34 -7 -38 -6 -47 17 -5 13 -9 43 -9 66 0 23
-14 107 -30 187 -27 131 -30 163 -30 335 0 195 -8 254 -44 324 -13 24 -16 44
-11 70 3 20 9 78 12 129 9 162 -33 252 -195 419 -77 78 -163 127 -282 159 -36
9 -69 21 -75 26 -13 11 -33 204 -35 323 0 50 -9 128 -20 175 -16 71 -20 123
-20 322 0 260 -5 290 -62 381 -30 47 -30 48 -18 111 28 149 -41 278 -195 369
-38 22 -91 56 -116 74 -75 54 -155 84 -259 97 l-95 12 -7 44 c-19 108 -90 199
-197 249 -56 26 -58 26 -329 29 -243 3 -283 1 -371 -17 -55 -12 -133 -21 -173
-21 l-73 1 77 40 c274 145 304 419 80 739 -92 131 -144 190 -217 245 -41 31
-75 61 -75 66 0 6 16 29 35 52 44 51 75 133 82 218 7 83 -22 188 -70 251 -39
51 -113 103 -170 120 -23 6 -45 14 -50 18 -4 4 3 31 17 61 28 63 61 203 51
219 -14 23 -224 117 -385 172 -319 108 -502 115 -727 24 l-86 -34 -36 28 c-79
64 -218 96 -306 71z m560 -1001 c8 -13 -15 -13 -35 0 -12 8 -11 10 7 10 12 0
25 -4 28 -10z m-3675 -25 c0 -8 -4 -15 -9 -15 -5 0 -11 7 -15 15 -3 9 0 15 9
15 8 0 15 -7 15 -15z m-318 -685 c24 -10 101 -42 172 -70 105 -42 145 -52 211
-57 109 -8 148 1 194 43 21 19 43 34 48 34 5 0 36 -20 69 -44 49 -35 70 -61
115 -137 30 -52 62 -107 70 -124 10 -20 29 -35 58 -46 l43 -15 -54 -36 c-153
-101 -316 -194 -325 -184 -1 1 4 23 12 49 27 91 -15 185 -97 216 -59 22 -406
71 -507 71 -104 0 -112 7 -70 60 32 40 34 46 32 114 0 40 -8 89 -16 109 -18
42 -14 44 45 17z m1188 -240 c111 -24 110 -23 37 -68 -40 -24 -169 -82 -183
-82 -1 0 7 18 19 40 22 39 22 40 4 87 -35 91 -36 88 19 60 27 -13 74 -30 104
-37z m4347 -1016 c15 -102 59 -190 126 -249 62 -54 133 -83 243 -98 l81 -11
-146 -72 c-80 -40 -184 -98 -229 -129 -46 -31 -86 -55 -87 -53 -2 2 -7 35 -11
73 -3 39 -15 100 -25 136 -24 84 -24 143 1 271 11 57 20 127 20 156 0 76 14
64 27 -24z m-2383 -726 c-109 -100 -207 -199 -225 -226 l-14 -22 -145 74 c-80
41 -197 92 -260 114 -125 43 -190 72 -190 83 0 7 83 23 200 38 36 5 211 9 389
10 l323 1 -78 -72z m-2761 2 c54 -6 182 -10 285 -11 179 0 186 -1 162 -17 -55
-38 -132 -113 -204 -197 -42 -49 -94 -104 -116 -122 -120 -103 -290 -392 -314
-533 l-12 -75 -40 -2 c-37 -3 -174 -28 -309 -58 -33 -7 -61 -12 -63 -10 -1 1
11 55 28 119 61 237 34 388 -101 554 -27 34 -49 63 -49 66 0 3 24 6 53 6 162
0 318 97 382 237 l28 61 86 -5 c47 -2 130 -8 184 -13z m4217 -346 c1 -142 1
-265 1 -273 -1 -20 -43 -6 -122 41 -38 23 -69 47 -69 55 0 8 18 44 40 80 37
61 75 160 100 263 30 120 32 124 40 109 5 -8 9 -132 10 -275z m-1460 -1609
c-7 -9 -15 -13 -19 -10 -3 3 1 10 9 15 21 14 24 12 10 -5z"/>
<path d="M7278 25296 c-53 -25 -145 -92 -183 -134 -62 -66 -53 -151 26 -238
27 -30 49 -63 49 -73 0 -11 -23 -48 -51 -83 -28 -35 -59 -80 -70 -100 l-19
-38 -123 7 c-113 5 -126 4 -175 -17 -40 -17 -64 -36 -92 -75 -21 -29 -69 -86
-107 -126 -38 -41 -79 -89 -92 -107 -27 -39 -26 -51 23 -254 29 -120 37 -142
68 -176 20 -22 48 -61 63 -88 15 -27 50 -83 76 -125 27 -41 49 -81 49 -87 0
-7 -11 -12 -25 -12 -34 0 -73 -21 -110 -60 -26 -27 -30 -39 -33 -104 -3 -59 0
-81 17 -114 12 -23 21 -53 21 -67 0 -22 -72 -173 -169 -354 -24 -45 -29 -65
-29 -125 1 -128 -69 -249 -181 -313 -166 -96 -289 -196 -953 -780 -151 -133
-286 -255 -300 -271 -15 -18 -33 -60 -43 -104 -10 -40 -33 -116 -51 -168 -43
-128 -51 -157 -80 -321 -21 -122 -36 -170 -110 -358 -46 -119 -112 -281 -146
-361 -122 -291 -140 -337 -175 -455 -43 -146 -194 -499 -331 -772 -39 -78 -80
-173 -90 -210 -92 -320 -135 -485 -152 -581 -11 -62 -41 -179 -66 -260 -77
-244 -100 -333 -118 -437 -20 -118 -35 -170 -126 -450 -80 -241 -101 -326
-129 -516 -12 -80 -44 -215 -76 -327 -66 -230 -90 -296 -165 -467 -32 -71 -71
-173 -88 -225 -144 -453 -142 -445 -162 -725 -6 -82 -15 -197 -21 -255 -7 -68
-9 -461 -6 -1140 l4 -1035 26 -210 c14 -115 33 -242 41 -282 9 -40 24 -139 35
-220 11 -82 31 -213 45 -293 16 -97 27 -203 31 -320 3 -96 12 -276 20 -400 8
-124 19 -324 25 -445 6 -128 16 -247 25 -285 39 -164 152 -528 202 -655 83
-207 120 -315 154 -448 16 -66 48 -165 70 -221 23 -56 55 -141 74 -191 18 -49
54 -135 80 -190 26 -55 81 -179 122 -275 88 -205 195 -421 265 -538 61 -101
118 -230 154 -349 14 -48 48 -142 75 -208 26 -66 63 -176 82 -245 38 -136 127
-335 204 -454 25 -39 124 -175 219 -302 95 -127 219 -301 277 -385 57 -85 130
-191 163 -236 196 -270 236 -327 288 -413 92 -150 127 -193 331 -400 105 -107
233 -242 285 -300 143 -160 297 -316 375 -378 39 -31 110 -91 159 -134 78 -69
114 -91 320 -195 296 -149 572 -278 661 -309 39 -14 122 -34 185 -45 155 -27
215 -44 339 -91 196 -74 265 -88 481 -98 218 -10 237 -13 615 -109 149 -38
304 -72 345 -75 41 -4 199 -31 351 -61 261 -52 285 -55 428 -55 124 0 161 -3
207 -19 l55 -20 -33 41 c-74 92 -167 217 -217 291 -29 43 -80 108 -113 145
-79 87 -166 219 -233 357 -30 61 -74 136 -97 167 -77 103 -241 445 -304 633
-32 94 -86 240 -122 325 -35 85 -79 202 -97 260 -46 145 -107 327 -171 505
-30 83 -63 181 -75 219 -11 38 -39 110 -60 160 -22 50 -51 140 -65 200 -14 61
-41 159 -60 218 -19 59 -42 147 -50 195 -25 141 -70 303 -123 440 -33 86 -54
162 -65 229 -9 56 -22 117 -30 135 -29 68 -99 395 -141 658 -15 90 -38 208
-51 264 -14 55 -31 143 -40 195 -8 53 -26 145 -39 206 -13 61 -29 149 -35 196
-6 47 -29 153 -50 235 -21 83 -46 195 -55 250 -9 55 -27 141 -40 190 -13 50
-33 158 -45 240 -23 167 -115 634 -159 808 -16 61 -45 153 -64 203 -20 51 -44
132 -53 180 -9 49 -29 155 -45 235 -16 81 -36 200 -45 265 -8 66 -35 217 -59
336 -37 184 -46 249 -55 418 l-12 199 25 33 c51 68 47 156 -12 221 -36 40 -36
40 -39 143 -3 85 -1 104 11 104 7 0 22 -9 32 -20 9 -10 32 -24 50 -30 18 -6
36 -18 39 -27 4 -9 1 -72 -5 -140 -6 -67 -8 -149 -5 -180 4 -32 10 -170 14
-308 7 -230 9 -254 30 -300 47 -102 135 -161 261 -173 l66 -7 12 -65 c6 -36
17 -108 23 -160 6 -52 20 -133 30 -180 10 -47 28 -141 40 -208 13 -78 36 -163
61 -230 65 -171 174 -660 229 -1032 16 -107 36 -217 45 -245 8 -27 24 -104 36
-170 11 -66 37 -187 59 -270 21 -82 45 -197 54 -255 8 -58 26 -157 40 -220 13
-63 27 -137 31 -165 3 -27 22 -117 40 -200 18 -82 43 -211 55 -285 31 -195 99
-514 127 -594 12 -38 30 -110 38 -160 8 -50 32 -138 54 -196 53 -142 95 -288
126 -445 14 -71 37 -163 50 -202 14 -40 39 -128 55 -196 16 -67 41 -150 56
-182 14 -33 50 -130 79 -215 29 -85 65 -186 80 -224 14 -38 39 -112 55 -165
51 -168 144 -431 207 -586 34 -82 88 -229 122 -326 65 -191 179 -426 261 -539
26 -36 72 -114 102 -175 69 -138 129 -232 201 -312 31 -35 75 -91 98 -125 116
-173 351 -459 477 -582 l50 -49 49 49 c60 60 146 104 273 139 52 15 120 35
150 45 30 10 98 26 150 35 52 9 152 30 222 46 123 28 133 29 400 29 265 0 277
-1 418 -30 97 -21 199 -34 310 -41 229 -14 358 -43 466 -106 l42 -24 35 50
c20 27 50 78 68 113 17 35 60 97 94 138 36 43 79 111 102 160 22 47 68 121
104 165 35 44 95 124 132 177 37 54 92 128 122 165 30 38 78 111 106 163 29
52 71 127 94 165 63 106 228 440 260 525 15 41 61 146 101 232 41 86 85 199
99 250 50 182 185 563 261 736 90 205 114 271 139 382 36 159 85 291 195 525
66 139 149 424 236 810 113 501 112 496 123 750 6 162 18 294 40 445 17 118
35 271 40 340 5 69 29 262 54 430 30 202 47 355 50 455 5 115 13 182 36 285
19 84 33 178 36 250 7 131 32 337 77 620 28 179 31 220 35 500 2 168 6 314 8
325 4 18 54 55 74 55 4 0 34 -37 67 -82 93 -127 114 -148 174 -168 l55 -19 -3
-222 c-2 -188 -7 -252 -31 -413 -48 -311 -70 -482 -81 -646 -6 -103 -18 -188
-35 -255 -20 -77 -28 -141 -34 -280 -6 -126 -24 -282 -59 -520 -28 -187 -53
-389 -57 -448 -3 -59 -17 -178 -31 -265 -17 -105 -30 -246 -39 -427 -11 -214
-19 -294 -39 -385 -175 -802 -248 -1067 -364 -1320 -102 -226 -136 -316 -157
-420 -20 -98 -70 -245 -120 -356 -58 -126 -100 -232 -135 -339 -18 -55 -50
-143 -71 -195 -21 -52 -50 -141 -64 -198 -29 -118 -66 -214 -129 -339 -24 -49
-69 -151 -99 -228 -57 -144 -243 -522 -295 -597 -16 -24 -51 -85 -77 -136 -27
-51 -89 -145 -138 -210 -49 -64 -107 -144 -130 -177 -22 -33 -63 -89 -92 -125
-29 -36 -60 -77 -69 -92 l-17 -27 50 20 c134 50 485 113 691 124 69 3 181 17
250 30 218 42 441 73 570 81 151 8 335 44 393 76 24 12 85 46 136 73 51 28
152 85 223 128 72 42 210 120 307 174 97 53 235 133 307 179 199 126 462 282
650 385 93 51 212 119 265 152 137 85 383 270 454 341 33 33 83 80 110 104
104 92 200 190 275 282 90 109 278 296 430 427 120 104 249 236 365 372 44 52
140 165 213 250 234 274 489 651 636 940 53 105 118 228 144 273 27 46 72 135
102 198 29 63 95 190 146 282 173 310 255 495 372 843 33 99 77 215 96 258 20
43 55 144 77 225 23 81 59 195 80 255 44 123 218 821 249 1002 12 66 32 161
45 210 13 50 27 113 30 140 12 93 57 278 86 358 39 105 62 195 94 368 15 78
40 185 56 238 17 53 41 155 55 226 14 72 36 173 49 225 13 52 26 120 30 150
13 112 46 284 74 383 16 57 36 153 45 215 20 136 61 296 116 454 49 142 126
441 135 523 4 33 22 150 40 260 18 110 36 252 40 315 3 63 13 153 21 199 7 46
14 120 14 165 1 44 7 117 16 161 12 69 37 472 34 560 -2 69 -114 702 -211
1195 -181 919 -414 1805 -661 2510 -184 526 -491 1234 -713 1643 -97 178 -382
621 -481 747 -41 52 -102 131 -135 175 -33 44 -72 96 -87 115 -15 19 -44 59
-66 90 -21 30 -59 78 -85 105 -26 28 -62 73 -81 100 -91 133 -340 400 -485
519 -33 27 -89 78 -125 112 -36 35 -92 82 -125 105 -33 22 -71 51 -85 64 -14
13 -45 33 -70 45 -25 12 -72 40 -104 62 -33 23 -91 53 -129 69 -38 16 -95 44
-127 64 -32 19 -98 51 -146 71 -49 19 -93 39 -99 44 -5 4 -44 19 -85 33 -41
14 -136 48 -210 76 -74 28 -138 51 -142 51 -4 0 -53 22 -110 49 -61 28 -138
56 -188 66 -47 10 -89 22 -94 26 -5 5 30 47 80 96 50 48 119 124 155 167 35
44 100 107 144 141 176 134 223 267 150 430 -30 69 -114 154 -187 188 -29 14
-71 40 -93 57 -50 40 -76 51 -145 59 l-54 6 -13 64 c-16 78 -28 98 -112 181
-36 36 -102 103 -146 149 -113 118 -200 156 -256 113 -41 -32 -69 -34 -101 -6
-39 32 -93 32 -136 1 -66 -49 -351 -355 -375 -403 -14 -27 -44 -72 -67 -99
-79 -95 -110 -190 -110 -342 0 -80 1 -83 33 -115 39 -38 192 -109 292 -135
l70 -18 5 -85 c6 -100 31 -150 89 -180 40 -20 119 -112 101 -118 -10 -4 -37 1
-155 28 -22 5 -61 12 -86 15 l-46 6 -41 83 c-95 191 -228 356 -396 491 -70 55
-71 55 -107 -54 -37 -114 -123 -283 -186 -366 -65 -86 -195 -207 -278 -260
-72 -46 -185 -94 -295 -126 l-95 -27 500 -4 c570 -4 561 -3 645 -88 74 -73 98
-175 65 -274 -13 -39 -15 -567 -18 -4507 -2 -4330 -3 -4465 -21 -4499 -10 -19
-34 -51 -53 -72 -31 -31 -35 -41 -30 -75 7 -58 26 -236 39 -358 l11 -110 -32
-50 c-58 -92 -73 -186 -51 -334 6 -42 18 -76 37 -103 66 -94 66 -92 54 -266
-6 -87 -14 -169 -19 -183 -9 -23 -10 -22 -32 21 -33 64 -112 179 -151 218 -40
41 -75 60 -127 68 l-40 6 -5 287 c-3 253 -11 361 -35 493 l-7 37 -59 -39
c-120 -80 -375 -146 -666 -175 -91 -9 -196 -23 -235 -33 -62 -14 -178 -17
-1005 -22 -1186 -8 -1106 0 -1558 -163 l-93 -34 -67 -139 c-37 -77 -83 -175
-102 -218 -58 -129 -153 -198 -274 -199 -90 -1 -165 32 -235 103 -31 31 -81
73 -111 92 -30 19 -102 69 -160 112 -160 117 -207 148 -315 208 l-100 55 -165
12 c-91 7 -203 19 -250 28 -67 12 -228 16 -765 22 -504 6 -719 12 -830 24 -82
9 -193 19 -245 22 -228 16 -409 69 -548 162 -82 54 -374 330 -416 393 -21 32
-28 23 -61 -85 -22 -72 -75 -376 -75 -432 0 -13 -4 -23 -10 -23 -5 0 -10 13
-10 29 0 56 -107 235 -226 375 l-66 78 12 47 c6 25 29 89 50 141 36 92 51 150
65 255 7 53 72 388 81 417 2 9 18 33 34 53 16 20 40 72 54 114 l25 78 3 4064
3 4064 24 65 c72 196 112 255 209 302 l67 33 460 5 460 5 -50 19 c-27 10 -79
31 -115 46 -37 16 -130 40 -215 55 -82 15 -156 32 -163 38 -7 5 -42 59 -78
118 -72 120 -74 121 -155 95 -24 -8 -105 -31 -179 -51 -170 -47 -446 -126
-570 -165 -52 -17 -98 -30 -102 -30 -4 0 8 22 27 50 54 81 55 151 3 238 l-21
34 35 36 c42 44 67 87 98 165 12 31 26 57 30 57 4 0 15 -9 26 -21 10 -12 32
-28 48 -36 70 -37 224 14 274 90 25 38 27 48 26 146 l0 106 -108 212 -107 213
-112 74 c-62 41 -128 91 -147 111 -38 40 -226 185 -240 185 -5 0 -26 11 -46
25 -49 33 -138 34 -206 1z m145 -217 c55 -27 146 -97 227 -174 36 -34 94 -78
128 -98 114 -67 159 -113 208 -211 38 -78 44 -98 44 -154 0 -62 -1 -64 -18
-49 -10 9 -34 23 -55 32 -125 52 -260 -38 -318 -213 -16 -47 -33 -76 -64 -106
-65 -62 -85 -102 -85 -167 0 -40 7 -70 25 -105 14 -27 25 -52 25 -55 0 -7
-181 -124 -227 -148 -15 -8 -80 -11 -195 -9 l-172 3 -34 60 c-18 33 -48 83
-66 110 -18 28 -52 82 -74 120 -22 39 -70 99 -106 135 -45 43 -66 72 -66 88 0
30 26 67 110 157 36 39 75 83 87 98 21 24 29 27 88 27 35 0 95 -5 133 -12 37
-6 79 -8 94 -5 47 12 86 55 110 119 13 36 41 84 70 117 77 90 91 126 86 230
-3 85 -5 90 -41 137 l-38 49 28 22 c35 28 43 28 96 2z m10259 -154 c38 -38 98
-100 134 -137 l64 -67 0 -82 c0 -166 78 -232 215 -185 44 16 73 7 108 -32 11
-12 41 -29 69 -39 65 -23 128 -89 128 -134 0 -49 -33 -92 -115 -148 -52 -37
-100 -83 -159 -154 -89 -109 -189 -207 -301 -298 -80 -65 -124 -89 -158 -89
-30 0 -37 16 -37 88 0 86 -15 124 -75 193 -77 90 -107 121 -133 141 -20 16
-22 27 -22 110 0 155 -35 197 -168 203 -70 3 -92 9 -149 38 l-68 35 0 53 c0
50 5 60 61 139 34 47 70 101 79 120 20 40 329 358 360 370 24 9 61 -19 167
-125z m-10307 -1525 c-18 -20 -55 -28 -55 -11 0 5 12 14 28 19 41 16 47 14 27
-8z m-215 -6 l64 -6 -51 -22 c-28 -12 -69 -35 -90 -52 -49 -39 -120 -84 -133
-84 -5 0 -10 12 -10 28 0 15 -7 52 -15 82 -8 30 -15 59 -15 63 0 7 103 3 250
-9z m209 -2792 c20 -21 60 -72 89 -114 46 -67 52 -82 52 -126 0 -28 -5 -52
-11 -54 -6 -2 -52 0 -102 5 -176 16 -259 -2 -297 -66 -18 -29 -20 -51 -20
-262 0 -127 5 -247 10 -267 15 -53 55 -96 119 -127 55 -26 55 -26 66 -86 6
-34 17 -75 24 -93 12 -27 11 -42 -3 -99 -10 -37 -22 -73 -28 -80 -16 -19 -175
-17 -229 3 -36 13 -99 16 -352 18 -190 1 -311 6 -317 12 -7 7 -7 36 1 88 11
71 16 83 55 127 24 27 51 64 60 81 23 44 29 146 14 217 -11 54 -10 68 10 143
19 70 22 101 18 208 -4 126 -11 154 -50 196 -18 20 -18 24 -4 52 18 34 13 42
-25 42 -57 0 -129 45 -129 80 0 38 24 51 122 65 53 8 109 20 124 26 75 28 144
33 703 47 62 2 65 1 100 -36z m11208 -36 c98 -21 140 -40 148 -66 9 -28 -17
-67 -60 -87 -33 -16 -34 -18 -18 -35 15 -16 14 -22 -4 -80 -15 -51 -25 -66
-50 -79 -115 -58 -123 -76 -123 -267 0 -177 10 -210 79 -255 36 -24 41 -32 41
-66 0 -21 9 -83 20 -136 11 -53 20 -135 20 -182 l0 -84 -33 -14 c-18 -7 -66
-16 -107 -20 -52 -4 -96 -16 -145 -38 -70 -32 -70 -32 -240 -32 -177 0 -220 8
-316 56 -83 42 -138 127 -139 214 0 73 8 91 52 120 44 29 68 75 68 130 0 26 9
45 36 75 20 22 35 42 33 43 -2 2 -16 10 -30 19 l-26 16 29 139 c66 315 45 426
-85 457 -15 3 -41 19 -58 34 l-31 27 21 54 c11 30 25 57 30 60 5 3 191 8 413
9 338 3 415 1 475 -12z m-11183 -472 l46 -7 0 -42 c0 -60 -23 -128 -59 -174
-27 -34 -29 -40 -15 -52 20 -16 47 -69 36 -69 -22 0 -100 41 -106 56 -8 21 -8
279 1 287 8 9 37 9 97 1z m-136 -3944 c79 -18 130 -62 175 -150 32 -64 37 -82
35 -130 -3 -52 -4 -55 -33 -60 -24 -4 -32 -13 -50 -59 -22 -59 -37 -69 -102
-70 -118 -2 -211 -50 -243 -124 -18 -43 -35 -210 -35 -359 0 -83 12 -110 69
-152 23 -18 45 -22 147 -25 96 -2 122 -6 126 -18 8 -19 -15 -226 -29 -272 -10
-31 -12 -33 -47 -27 -116 18 -179 18 -286 -3 -60 -12 -132 -28 -159 -36 -33
-10 -93 -15 -187 -15 -166 0 -226 17 -283 80 l-36 40 1 143 c1 196 -2 189 94
203 84 14 119 33 148 81 21 37 23 69 13 238 -8 127 -7 131 18 175 65 117 77
148 70 184 -3 20 -17 47 -31 61 -25 24 -96 51 -111 41 -4 -2 -52 -9 -107 -16
-117 -13 -125 -8 -125 71 l0 46 51 7 c28 4 83 20 122 35 40 16 119 36 177 45
58 10 146 29 195 43 50 14 113 29 140 33 66 11 216 6 283 -10z m10807 -70
c244 -10 325 -21 425 -59 48 -19 61 -30 98 -86 24 -35 41 -68 38 -74 -3 -5
-18 -12 -33 -16 -42 -10 -93 -53 -109 -91 -11 -26 -14 -95 -14 -304 0 -250 2
-274 20 -310 22 -44 55 -69 122 -94 25 -9 49 -25 53 -34 4 -9 10 -60 12 -113
7 -115 -7 -184 -45 -228 l-27 -31 -425 -2 c-414 -2 -426 -2 -472 19 -30 14
-56 35 -74 62 -25 38 -26 45 -20 117 7 77 13 93 79 217 20 38 37 74 37 81 0 7
22 18 49 25 86 22 121 76 121 188 0 93 49 305 85 367 43 76 41 132 -8 184 -36
38 -85 45 -158 21 -82 -27 -229 -38 -229 -18 0 20 27 129 39 162 10 27 11 27
103 27 51 -1 201 -5 333 -10z m-10705 -652 c0 -40 3 -45 40 -66 22 -13 54 -41
70 -63 27 -38 47 -95 37 -105 -2 -3 -22 5 -42 18 -30 17 -59 23 -139 27 l-100
6 2 90 c4 123 4 123 60 128 26 2 53 4 60 5 8 1 12 -12 12 -40z m11349 -160
c12 -15 11 -18 -3 -18 -10 0 -16 8 -16 22 0 12 1 19 3 17 1 -2 9 -12 16 -21z
m-10275 -2554 c3 -9 6 -30 6 -47 0 -62 82 -137 151 -137 13 0 62 -11 109 -25
100 -29 234 -47 264 -35 28 11 52 38 70 82 9 20 21 40 28 44 10 6 11 4 1 -7
-22 -23 -14 -43 33 -88 l46 -44 67 7 c93 8 245 -22 352 -70 46 -21 89 -42 96
-46 13 -10 -3 -92 -41 -203 -38 -111 -143 -444 -162 -515 -16 -58 -25 -72 -91
-138 -68 -67 -75 -72 -96 -60 -12 7 -78 15 -147 18 -99 5 -133 11 -165 27 -42
22 -90 75 -119 130 l-16 32 -64 -6 c-56 -5 -69 -3 -102 18 -29 17 -51 23 -93
22 -38 -1 -68 5 -100 21 -46 22 -46 22 -188 7 -163 -17 -151 -5 -129 -129 7
-40 10 -75 5 -77 -11 -8 -53 11 -69 31 -12 13 -14 45 -13 148 2 72 -2 206 -9
298 -22 320 34 707 108 735 26 10 118 20 190 22 57 1 73 -2 78 -15z m8087
-106 c83 -115 113 -217 149 -500 6 -49 26 -130 45 -183 47 -129 49 -209 6
-255 l-29 -32 -35 54 c-53 80 -132 163 -171 182 -19 9 -57 16 -85 16 -43 0
-68 -9 -155 -55 l-103 -55 -107 0 c-59 0 -127 -5 -152 -11 -79 -20 -118 -94
-96 -182 8 -28 8 -45 1 -52 -6 -5 -54 -10 -107 -10 -111 0 -155 17 -211 81
-41 47 -49 67 -72 194 -16 88 -29 124 -78 220 -33 64 -69 145 -80 180 -21 64
-28 154 -12 178 8 13 160 37 318 49 81 6 74 12 87 -82 16 -116 147 -171 264
-111 26 14 87 61 135 106 58 53 94 79 105 76 56 -16 148 -28 182 -23 88 12
149 94 150 200 0 31 4 57 10 57 5 0 24 -19 41 -42z m-3968 -1761 c100 -42 173
-171 211 -373 51 -269 55 -375 19 -466 -21 -52 -111 -113 -181 -123 -63 -8
-135 9 -186 45 -40 29 -42 29 -81 15 -99 -35 -178 -9 -225 75 -21 39 -24 57
-23 133 0 48 6 122 11 165 6 42 15 129 20 192 7 91 15 127 35 171 82 172 236
236 400 166z m-6031 -1074 c93 -44 151 -100 196 -191 36 -74 37 -79 36 -181 0
-123 -17 -176 -89 -276 -78 -110 -188 -192 -329 -245 -44 -17 -94 -36 -111
-43 -16 -6 -100 -79 -185 -162 -223 -217 -271 -247 -590 -364 -107 -40 -203
-75 -212 -79 -15 -6 -11 -16 28 -77 97 -150 183 -349 249 -580 41 -144 114
-375 119 -375 2 0 42 18 89 40 48 23 169 72 269 111 121 46 257 109 403 186
280 148 308 165 377 230 32 30 88 68 125 86 64 30 75 32 178 32 104 0 114 -2
176 -32 154 -76 255 -257 234 -416 -18 -125 -70 -221 -173 -319 -86 -81 -197
-150 -510 -315 -258 -136 -321 -165 -542 -248 -137 -52 -239 -102 -247 -121
-2 -7 24 -68 58 -135 61 -119 87 -156 322 -443 75 -92 183 -268 297 -486 51
-96 113 -204 138 -239 224 -307 236 -328 248 -445 12 -117 -39 -249 -128 -332
-94 -87 -225 -127 -351 -106 -140 24 -246 99 -345 243 -28 41 -80 115 -116
164 -36 50 -104 164 -152 255 -146 277 -215 385 -355 555 -195 236 -188 224
-564 945 -148 282 -223 473 -320 810 -82 284 -126 394 -198 500 -28 39 -208
253 -325 385 -94 105 -136 240 -113 362 24 130 88 215 246 328 128 92 245 139
506 205 115 29 401 130 470 165 17 9 94 78 171 153 76 75 169 159 206 187 71
53 188 114 260 136 24 7 62 29 85 49 112 97 174 120 307 117 83 -2 103 -6 162
-34z m5891 -86 c18 -8 47 -26 65 -42 31 -26 37 -27 92 -21 86 10 172 -9 277
-60 107 -51 151 -86 197 -158 123 -191 136 -233 136 -430 0 -210 -28 -304
-125 -417 -100 -118 -213 -186 -356 -215 -174 -35 -437 20 -623 130 -83 50
-185 157 -223 234 -25 50 -28 70 -32 173 -4 155 23 261 119 454 112 227 193
325 294 354 47 14 143 13 179 -2z m6548 -394 c72 -36 137 -94 177 -158 18 -30
53 -60 107 -95 91 -60 331 -294 439 -430 86 -109 169 -246 261 -436 93 -190
113 -261 125 -439 5 -77 14 -167 20 -200 5 -33 10 -141 10 -241 0 -202 -14
-284 -68 -390 -87 -172 -212 -283 -442 -393 -175 -84 -180 -84 -749 -89 -328
-2 -533 0 -585 7 -101 14 -207 62 -275 126 l-49 46 -111 -160 c-119 -170 -358
-541 -480 -746 -65 -109 -147 -225 -188 -267 -82 -84 -228 -130 -349 -110
-232 38 -384 250 -345 483 14 84 67 204 117 266 19 23 59 83 87 131 97 165
351 553 562 860 197 285 210 308 342 582 64 135 150 304 190 375 41 72 107
196 148 276 41 81 94 181 119 223 l45 77 -6 78 c-10 137 37 263 131 347 55 50
85 68 160 94 36 13 70 37 117 83 108 106 186 138 330 134 84 -2 103 -6 160
-34z m-6846 -2781 c33 -6 96 -16 140 -23 137 -20 320 -94 415 -169 19 -15 56
-36 81 -47 61 -27 331 -187 394 -233 104 -77 218 -214 322 -385 29 -49 90
-142 134 -205 100 -145 155 -257 214 -435 75 -227 96 -318 102 -445 10 -203
-37 -451 -116 -617 -55 -115 -93 -173 -162 -249 -25 -28 -64 -85 -85 -125 -30
-58 -68 -105 -179 -218 -148 -152 -212 -201 -322 -247 -37 -15 -87 -41 -111
-57 -101 -68 -230 -112 -387 -132 -27 -4 -97 -22 -155 -40 -58 -18 -127 -36
-155 -39 -27 -4 -95 -19 -150 -34 -92 -24 -120 -26 -340 -30 -232 -4 -244 -3
-355 23 -170 40 -204 52 -268 99 -63 47 -119 123 -148 201 -16 44 -19 98 -24
465 -7 443 -17 590 -58 875 -25 176 -26 196 -30 812 -2 456 0 648 8 688 6 31
33 98 58 149 26 51 58 117 72 147 57 126 222 244 381 274 88 17 626 14 724 -3z"/>
<path d="M12480 9060 c-19 -11 -46 -19 -60 -20 -41 0 -50 -18 -50 -99 l0 -75
55 -53 c52 -49 90 -71 102 -60 13 14 23 92 23 189 0 148 -4 154 -70 118z"/>
<path d="M18794 8162 c-34 -53 -92 -157 -129 -231 -37 -74 -99 -191 -138 -260
-120 -214 -200 -382 -187 -395 8 -8 142 -11 455 -11 404 0 446 2 461 17 16 16
16 25 1 142 -10 68 -20 167 -23 218 -6 90 -9 97 -70 215 -34 68 -79 147 -98
176 -36 54 -192 227 -204 227 -4 0 -35 -44 -68 -98z"/>
<path d="M11710 5221 c0 -442 1 -480 24 -648 35 -253 65 -645 66 -862 l0 -93
33 4 c81 11 261 51 352 79 55 16 146 38 202 48 76 14 114 26 150 49 27 17 78
44 113 61 78 35 166 123 223 221 21 36 63 94 93 130 71 83 85 110 100 195 21
114 17 145 -36 306 -52 159 -71 196 -180 349 -37 52 -86 128 -109 168 -23 40
-56 88 -73 107 -32 37 -228 157 -318 194 -30 13 -79 40 -108 60 -29 20 -65 43
-80 53 -36 22 -224 48 -350 48 l-102 0 0 -469z"/>
<path d="M15744 24654 c4 -11 13 -45 19 -76 6 -32 14 -58 18 -58 11 0 79 101
79 116 0 7 -19 15 -42 19 -24 3 -52 9 -62 12 -15 4 -18 2 -12 -13z"/>
<path d="M13978 24305 c-3 -4 -37 -7 -74 -7 -38 -1 -72 -6 -76 -12 -5 -7 -8
-7 -8 0 0 6 -14 9 -32 7 -35 -4 -87 -4 -128 1 -14 1 -29 0 -34 -2 -5 -3 -173
-5 -375 -6 -201 0 -370 -4 -376 -7 -5 -4 -21 -5 -35 -3 -48 5 -86 5 -225 -1
-77 -3 -170 -7 -207 -9 -38 -1 -68 1 -68 6 0 4 -11 3 -24 -2 -33 -12 -87 -10
-79 4 5 8 3 8 -8 0 -16 -12 -180 -11 -200 1 -7 5 -10 4 -7 -1 4 -5 -269 -9
-670 -8 -373 0 -681 -2 -687 -5 -18 -10 -35 -9 -29 1 4 6 -2 8 -15 4 -11 -3
-31 -9 -42 -12 -16 -4 -19 -3 -14 6 5 8 4 11 -2 7 -6 -4 -53 -9 -104 -12 -52
-3 -123 -8 -159 -11 -36 -4 -73 -7 -82 -6 -10 0 -18 -2 -18 -6 0 -4 -15 -7
-32 -8 -60 -2 -120 -12 -130 -22 -6 -6 -17 -8 -24 -5 -8 3 -14 1 -14 -3 0 -5
-20 -10 -45 -12 -24 -1 -59 -9 -77 -16 -18 -8 -54 -17 -80 -20 -27 -4 -48 -11
-48 -17 0 -5 -3 -8 -7 -8 -22 4 -32 -3 -27 -16 4 -9 -2 -18 -14 -22 -12 -5
-22 -12 -24 -18 -2 -5 -6 -9 -10 -8 -5 2 -8 -4 -8 -11 0 -10 22 -21 58 -31 31
-9 100 -30 152 -45 52 -16 123 -31 157 -35 34 -3 87 -12 118 -20 31 -8 91 -15
133 -15 95 0 335 -24 445 -45 45 -8 154 -19 242 -24 100 -6 222 -22 325 -42
125 -23 211 -33 355 -40 105 -4 303 -14 440 -20 138 -7 311 -13 385 -12 280 1
827 21 865 32 46 12 361 46 563 61 89 6 157 17 194 30 31 11 89 24 130 30 69
11 159 27 383 70 111 21 275 40 346 40 50 0 252 43 303 64 17 7 37 11 45 8 8
-3 -1 10 -20 29 -19 18 -33 37 -32 41 2 4 -3 8 -11 8 -8 0 -22 7 -30 16 -9 8
-16 12 -16 8 0 -3 -7 -1 -15 6 -8 6 -20 8 -26 4 -8 -4 -9 -3 -5 4 4 7 1 12 -6
13 -16 1 -34 5 -75 18 -18 5 -33 7 -33 4 0 -3 -6 -1 -12 5 -7 5 -38 11 -68 12
-89 2 -123 6 -151 18 -15 6 -29 8 -32 5 -3 -3 -12 -1 -19 3 -13 9 -24 10 -103
18 -27 3 -51 6 -52 7 -2 1 -11 2 -20 3 -10 1 -24 5 -30 9 -8 5 -13 3 -13 -5 0
-8 -3 -9 -8 -3 -4 6 -16 11 -27 13 -126 16 -393 23 -455 12 -27 -5 -47 -5 -51
1 -3 5 -8 7 -11 4z"/>
<path d="M8650 22839 c0 -83 -3 -99 -35 -169 -52 -114 -61 -171 -47 -299 6
-58 14 -144 17 -191 3 -47 18 -152 33 -235 l27 -150 0 -905 c0 -894 0 -907
-24 -1090 -20 -158 -23 -227 -23 -470 1 -305 13 -502 37 -590 13 -48 15 -294
16 -1870 0 -998 4 -1824 8 -1835 7 -18 10 -16 26 15 45 89 114 131 228 138 42
2 77 6 77 8 0 2 -11 19 -24 39 -43 63 -61 131 -61 236 0 89 2 100 33 159 18
35 31 64 30 65 -2 1 -19 11 -38 23 -92 55 -132 133 -130 255 1 49 -4 97 -13
120 -7 21 -15 67 -16 102 -2 68 19 135 65 204 36 53 204 222 204 204 0 -3 9 2
20 12 11 10 22 16 24 14 2 -2 9 -33 16 -69 21 -110 24 -525 6 -828 -9 -150
-16 -315 -16 -368 0 -65 -8 -135 -27 -222 -22 -101 -27 -153 -27 -257 0 -71 4
-142 7 -157 l7 -28 -114 0 c-112 0 -115 1 -162 33 -30 19 -61 52 -80 84 l-32
53 -6 -31 c-3 -17 -6 -46 -6 -63 0 -44 -26 -128 -48 -157 -12 -16 -21 -49 -25
-95 -4 -39 -12 -85 -18 -103 -17 -49 -6 -148 24 -207 41 -81 108 -133 237
-184 27 -11 78 -37 113 -59 34 -22 80 -44 102 -50 143 -37 464 -62 925 -71
485 -11 926 -26 939 -34 5 -4 155 -12 333 -20 248 -11 335 -18 373 -31 108
-36 365 -191 569 -341 48 -36 90 -64 91 -62 2 2 23 47 48 100 50 107 110 181
185 224 57 34 198 84 234 84 15 0 51 -17 84 -40 78 -54 142 -74 239 -74 98 1
164 19 297 84 l102 50 90 -6 c112 -8 190 11 277 68 77 49 93 49 430 -3 309
-47 492 -57 759 -40 257 16 690 95 811 148 l43 19 -54 37 c-30 20 -66 52 -79
72 -13 20 -42 48 -65 63 -52 35 -102 102 -117 155 -21 78 -6 150 60 295 86
188 113 227 185 264 121 62 276 14 339 -106 33 -63 30 -164 -7 -235 l-28 -54
31 -67 c44 -96 58 -166 44 -232 -6 -29 -9 -55 -7 -57 2 -2 36 16 76 39 101 60
233 194 276 282 65 134 93 315 72 467 -6 47 -29 139 -49 205 -21 67 -44 159
-50 206 -7 47 -24 130 -38 185 -25 97 -25 106 -19 325 9 296 23 558 41 755 37
409 40 473 40 845 -1 504 -11 563 -119 696 l-46 56 0 240 c0 191 3 253 16 302
26 97 24 329 -4 430 -12 44 -22 88 -22 98 0 10 -4 18 -9 18 -6 0 -33 25 -62
55 -31 33 -77 68 -117 88 l-66 33 -13 79 c-7 44 -24 121 -37 170 -44 164 -65
306 -76 517 -6 114 -12 213 -15 220 -2 7 -11 101 -20 208 -8 107 -22 251 -30
320 -8 69 -17 208 -20 310 -6 195 -29 443 -45 501 -6 18 -10 38 -10 42 0 5 71
7 158 5 176 -5 220 -17 251 -68 18 -30 18 -41 5 -131 -6 -46 -6 -47 48 -103
l55 -57 6 318 c3 175 5 507 4 738 l-2 420 -3847 3 -3848 2 0 -91z m5387 -113
c45 -8 128 -20 185 -26 57 -6 146 -20 198 -32 135 -30 399 -30 550 1 377 77
571 90 760 51 58 -12 130 -30 160 -40 35 -12 98 -20 172 -24 208 -9 260 -62
183 -190 -32 -53 -35 -66 -35 -132 0 -67 -2 -76 -30 -108 -35 -40 -84 -62
-160 -71 -30 -3 -71 -10 -90 -16 -19 -5 -78 -9 -130 -9 -121 0 -203 -19 -241
-56 -27 -26 -28 -29 -14 -50 14 -22 13 -23 -41 -40 -94 -29 -184 -131 -184
-207 0 -15 1 -27 3 -27 1 0 26 9 55 20 123 47 245 3 307 -112 27 -49 30 -63
33 -178 7 -221 -17 -336 -84 -404 -73 -73 -195 -94 -281 -48 -52 27 -50 35
-59 -175 -7 -163 -3 -183 27 -147 21 26 87 55 139 61 102 12 204 -47 251 -145
23 -47 23 -50 22 -427 0 -399 -8 -502 -44 -585 -71 -161 -276 -200 -398 -77
-23 24 -50 66 -61 93 -16 42 -19 45 -20 20 0 -15 -12 -65 -26 -111 l-26 -83
-236 -5 c-130 -4 -248 -8 -262 -9 -25 -3 -25 -3 -21 67 3 61 8 76 42 127 21
31 39 59 39 63 0 3 10 22 23 43 35 57 67 137 78 199 6 32 22 79 35 105 38 75
48 140 34 212 -7 33 -14 75 -16 91 -6 43 -23 92 -54 155 l-28 56 30 39 c73 96
102 216 87 354 -13 118 -29 112 -29 -10 0 -158 -31 -246 -98 -278 -37 -18 -55
-13 -144 33 -45 24 -114 54 -153 66 -100 32 -105 41 -105 166 0 129 13 192 53
251 61 90 194 129 295 88 49 -21 119 -90 133 -132 23 -70 36 -35 45 122 11
199 -13 290 -113 414 -53 67 -46 69 -72 -25 -28 -103 -123 -174 -235 -174 -78
0 -129 25 -207 102 -91 90 -121 177 -94 280 19 68 55 112 122 144 47 24 70 28
128 27 38 0 84 -6 100 -12 26 -11 28 -10 15 2 -37 36 -138 47 -212 25 -50 -15
-131 -86 -148 -130 -7 -18 -30 -60 -52 -94 -51 -81 -65 -150 -51 -246 16 -108
45 -173 123 -276 38 -51 70 -96 70 -102 0 -5 -32 -26 -71 -46 -186 -98 -252
-225 -215 -411 l17 -82 -24 -38 c-78 -124 -109 -239 -108 -403 0 -130 26 -381
44 -420 16 -35 132 -203 166 -241 26 -28 41 -67 41 -105 0 -11 -27 -14 -134
-14 l-133 0 -7 43 c-4 23 -14 68 -23 101 l-16 59 -23 -45 c-12 -24 -41 -61
-63 -81 -116 -105 -318 -59 -381 87 -23 55 -85 317 -103 441 -9 55 -21 168
-28 251 -11 140 -11 156 5 198 59 155 231 210 370 119 l39 -25 -7 58 c-22 183
-26 225 -26 286 0 99 -4 104 -53 63 -117 -100 -290 -73 -371 58 -25 41 -30 61
-36 149 -4 57 -16 132 -26 168 -12 43 -18 100 -18 171 -1 100 0 108 29 154 81
132 270 155 380 48 21 -20 44 -51 51 -70 8 -18 17 -33 21 -33 11 0 -6 146 -23
186 -59 142 -214 204 -350 140 -28 -13 -55 -29 -58 -35 -4 -6 -12 -11 -18 -11
-11 0 -9 11 16 92 l15 48 -50 -26 c-184 -92 -389 33 -389 238 0 110 78 202
286 340 143 94 210 111 514 129 102 6 187 13 190 16 9 9 241 -6 327 -21z
m-4810 -1 c67 -20 134 -80 163 -147 20 -47 22 -64 17 -148 -5 -78 -2 -105 13
-150 26 -75 24 -132 -6 -215 -38 -103 -55 -158 -50 -162 2 -3 33 9 68 26 102
50 177 61 409 61 113 0 240 3 281 6 l75 7 -5 73 c-3 55 0 86 12 119 17 43 17
47 -1 97 -26 77 -25 227 3 288 43 93 111 146 202 157 135 16 249 -80 271 -227
6 -36 24 -92 41 -124 24 -48 30 -71 30 -123 0 -35 -5 -83 -10 -106 -7 -26 -8
-58 -2 -82 8 -38 10 -40 43 -39 348 14 455 -6 566 -109 85 -78 131 -184 144
-334 9 -108 37 -288 69 -461 18 -92 20 -149 20 -545 1 -243 5 -489 11 -547 23
-242 26 -309 18 -375 -20 -162 -139 -308 -291 -359 -104 -34 -359 -49 -868
-50 -474 -1 -487 -1 -555 21 -108 34 -178 83 -236 166 -71 101 -89 168 -100
367 -5 91 -17 239 -26 330 -9 94 -17 285 -19 445 -2 170 -7 294 -14 315 -6 19
-14 88 -17 152 l-6 118 -51 29 c-68 38 -151 128 -184 198 -40 88 -43 213 -8
313 14 41 24 75 22 77 -2 2 -19 -4 -39 -12 -62 -26 -145 -20 -215 16 -150 75
-208 227 -141 366 18 38 19 49 10 94 -14 66 -5 247 16 313 23 71 84 129 165
155 77 24 109 25 175 6z m2780 -20 c39 -16 116 -86 142 -129 34 -54 43 -119
30 -205 -12 -75 -11 -77 15 -115 49 -73 59 -182 22 -254 -62 -120 -255 -187
-382 -133 -64 28 -163 127 -200 201 -39 76 -44 164 -14 245 12 33 26 98 30
145 4 47 12 97 18 113 52 126 208 186 339 132z m1053 -1003 c0 -15 -6 -58 -14
-96 -8 -38 -18 -117 -22 -175 -3 -58 -17 -160 -30 -226 -14 -65 -29 -173 -35
-240 -9 -99 -32 -277 -63 -485 -3 -19 -10 -179 -16 -355 -8 -263 -7 -352 5
-504 8 -101 14 -186 12 -188 -2 -1 -27 -7 -55 -13 -56 -10 -119 -39 -169 -76
-17 -13 -39 -24 -47 -24 -26 0 -67 73 -75 133 -16 118 34 247 122 313 29 21
58 44 64 51 7 6 18 13 24 15 15 5 19 70 5 87 -8 11 -8 13 2 7 18 -11 15 10 -5
30 -10 10 -16 19 -13 20 3 2 -2 12 -11 22 -9 11 -42 24 -80 31 -128 25 -159
33 -196 52 -21 11 -41 27 -45 37 -12 30 -8 262 7 435 15 172 10 357 -15 487
-6 29 -10 75 -10 101 0 47 1 49 28 50 49 1 106 9 142 21 43 13 158 73 185 96
17 15 66 97 100 169 5 13 13 23 18 23 4 0 7 6 7 14 0 8 11 28 25 44 14 17 25
34 25 39 0 12 111 133 122 133 4 0 8 -12 8 -28z m-1065 -519 c85 -45 123 -115
135 -252 4 -53 15 -116 24 -141 10 -27 16 -69 15 -110 -1 -36 4 -85 11 -110
13 -50 7 -145 -14 -195 -37 -87 -129 -145 -231 -145 -109 0 -179 54 -249 192
l-46 89 -1 137 c0 75 -2 189 -2 252 -1 101 1 121 22 168 59 131 207 182 336
115z m-2814 -44 c76 -23 155 -114 222 -257 28 -58 32 -78 32 -147 0 -63 -5
-91 -24 -130 -19 -40 -23 -65 -22 -122 3 -100 -14 -149 -69 -204 -102 -103
-248 -101 -346 3 -42 44 -110 150 -125 195 -19 58 -7 172 24 228 l27 47 -20
59 c-11 32 -20 72 -20 89 0 167 161 286 321 239z m0 -1747 c63 -33 113 -99
124 -164 4 -24 11 -47 15 -53 4 -5 22 -37 39 -71 40 -79 48 -149 27 -248 -9
-43 -16 -98 -16 -122 0 -66 -35 -147 -80 -188 -64 -58 -101 -69 -220 -70 -122
-1 -159 13 -227 86 -74 81 -89 196 -39 298 l27 55 -36 68 c-27 53 -35 80 -35
121 0 83 24 147 77 207 97 106 233 139 344 81z m2825 -68 c75 -36 126 -107
143 -199 5 -26 14 -52 20 -58 8 -8 89 -14 252 -17 l241 -5 21 -26 c12 -15 35
-34 50 -44 34 -22 21 -35 -35 -35 -21 0 -63 -10 -95 -22 -49 -20 -77 -23 -188
-23 -118 0 -135 -2 -180 -25 -73 -35 -138 -105 -164 -173 -17 -48 -21 -79 -21
-186 0 -71 5 -153 10 -182 11 -56 94 -277 138 -364 67 -135 162 -242 249 -282
47 -22 65 -25 127 -21 144 9 257 92 309 224 15 40 60 116 98 170 85 119 111
168 137 259 73 249 -2 505 -174 593 l-37 19 114 6 c63 3 117 2 121 -1 4 -4 2
-27 -3 -52 -18 -75 -7 -217 20 -270 13 -25 30 -53 39 -62 11 -13 17 -54 23
-150 21 -360 19 -342 41 -358 107 -80 135 -135 144 -283 3 -51 12 -120 21
-155 13 -52 14 -71 4 -117 -22 -96 -125 -227 -207 -261 -18 -8 -62 -14 -97
-14 -145 0 -247 103 -247 249 l0 60 -262 4 c-353 5 -481 25 -626 95 -59 29
-96 66 -123 127 l-19 40 0 -31 c0 -17 -7 -55 -16 -85 -32 -108 -138 -179 -268
-179 -28 0 -94 -12 -146 -28 -94 -27 -98 -27 -382 -26 l-287 0 20 -24 c23 -29
43 -98 35 -119 -4 -8 -1 -53 6 -99 16 -110 -2 -172 -67 -238 -25 -24 -45 -46
-45 -49 0 -3 21 -10 46 -16 95 -24 163 -93 185 -188 10 -43 9 -66 -5 -139 -22
-109 -43 -151 -98 -198 -48 -42 -91 -56 -168 -56 -148 0 -262 156 -235 322 14
84 45 147 97 198 l50 49 -39 7 c-123 22 -199 115 -224 273 -18 118 5 211 69
280 18 18 32 34 32 35 0 0 -21 1 -47 1 -27 0 -66 3 -88 7 -22 4 -98 12 -170
18 -71 6 -173 20 -225 30 -122 25 -219 25 -350 -1 -58 -11 -116 -23 -130 -25
-39 -8 -122 -53 -155 -84 -195 -187 -506 26 -418 286 32 95 202 226 369 285
206 71 571 101 744 61 47 -11 134 -23 195 -27 60 -4 152 -13 204 -21 52 -8
128 -14 170 -14 42 0 123 -7 181 -14 58 -8 200 -17 315 -21 205 -7 213 -7 308
18 154 41 242 52 308 38 103 -22 187 -94 213 -182 11 -36 12 -28 8 76 -3 81 1
160 14 252 15 115 16 148 6 217 -7 45 -12 109 -12 142 0 55 -2 61 -38 96 -21
20 -43 47 -49 60 -6 13 -32 68 -59 123 l-49 100 1 125 c0 138 17 195 72 253
70 74 185 95 278 51z m2390 -1141 c33 -11 65 -33 99 -68 41 -43 59 -54 103
-64 73 -15 124 -43 164 -91 62 -72 78 -186 39 -275 -25 -56 -26 -67 -6 -104
18 -36 44 -158 38 -182 -4 -14 6 -18 69 -24 40 -4 100 -16 133 -26 33 -10 90
-25 128 -33 160 -37 241 -108 327 -289 32 -67 67 -149 79 -183 24 -72 41 -199
41 -308 l0 -79 37 38 c101 104 256 109 356 11 49 -47 77 -116 77 -187 0 -24
12 -56 35 -95 42 -70 53 -106 61 -199 12 -144 -32 -310 -102 -379 -74 -72
-195 -94 -280 -49 -112 59 -156 175 -122 322 11 50 11 50 -29 103 -22 29 -45
61 -50 72 -8 14 -13 -4 -21 -75 -6 -52 -20 -155 -32 -229 -30 -204 -24 -379
21 -555 42 -161 14 -300 -81 -408 -113 -127 -234 -161 -635 -177 -247 -10
-391 -7 -600 12 -123 11 -157 20 -152 41 1 9 -33 14 -123 18 -203 10 -305 47
-406 144 -95 93 -134 207 -134 396 0 98 -22 357 -36 439 l-7 35 -14 -35 c-36
-86 -113 -146 -199 -156 -112 -14 -211 49 -268 168 -39 83 -86 227 -86 264 0
14 8 54 17 89 16 59 16 66 -2 120 -22 73 -17 221 10 275 33 65 68 102 119 126
125 58 267 9 332 -117 8 -16 18 -29 23 -29 16 0 -18 197 -48 280 -88 244 18
484 244 552 16 5 113 15 214 23 159 12 375 35 488 51 l32 5 -33 43 c-44 58
-60 120 -52 200 6 59 4 67 -19 94 -50 59 -75 131 -75 213 0 92 19 153 67 208
70 82 159 108 259 74z m1610 -78 c70 -31 129 -93 167 -173 29 -62 32 -75 32
-167 -1 -87 -5 -112 -33 -191 -22 -64 -32 -109 -32 -151 0 -164 -99 -263 -262
-265 -212 -2 -340 140 -292 325 9 34 33 96 55 137 21 42 39 81 39 87 0 6 -13
37 -30 68 -65 123 -24 267 91 326 87 44 175 46 265 4z m-5716 -693 c0 -7 -4
-10 -10 -7 -5 3 -10 15 -10 26 0 13 -4 18 -12 13 -7 -5 -8 -3 -3 6 6 10 11 9
22 -5 7 -11 13 -25 13 -33z m-130 17 c0 -5 -4 -9 -8 -9 -5 0 -9 7 -9 15 0 8 4
12 9 9 4 -3 8 -9 8 -15z m-55 1 c-3 -5 1 -10 11 -10 14 0 14 -3 4 -15 -11 -13
-15 -13 -21 -3 -12 18 -11 38 2 38 5 0 7 -4 4 -10z m115 -4 c-6 -6 -18 -5 -32
1 -21 10 -21 10 9 9 19 -1 28 -5 23 -10z m-398 -3 c-6 -2 -9 -10 -6 -15 4 -7
2 -8 -5 -4 -13 9 -5 26 12 25 9 0 8 -2 -1 -6z m91 -8 c-3 -9 -8 -14 -10 -11
-3 3 -2 9 2 15 9 16 15 13 8 -4z m167 5 c0 -5 -4 -10 -9 -10 -6 0 -13 5 -16
10 -3 6 1 10 9 10 9 0 16 -4 16 -10z m737 -15 c0 -8 -4 -12 -9 -9 -5 3 -6 10
-3 15 9 13 12 11 12 -6z m-1361 -386 c92 -44 143 -137 145 -263 0 -34 7 -83
14 -111 12 -48 13 -44 14 92 l1 142 44 6 c25 4 49 4 55 0 6 -3 11 -2 11 4 0 5
12 8 28 7 15 -2 35 0 44 5 10 6 19 5 23 -1 8 -12 62 -13 69 -1 3 4 42 7 86 7
63 -1 84 2 92 14 8 13 9 12 4 -2 -3 -10 0 -20 6 -24 6 -4 8 -3 4 4 -8 13 14
28 23 16 3 -5 13 -9 21 -9 12 0 16 -25 22 -140 8 -167 21 -248 54 -332 l25
-62 -44 -44 c-66 -66 -92 -163 -73 -274 5 -29 2 -55 -10 -90 -13 -37 -19 -99
-24 -268 -4 -121 -10 -231 -14 -245 -23 -98 -30 -148 -29 -240 0 -97 2 -112
36 -196 21 -50 37 -95 37 -99 0 -4 -22 -37 -49 -74 -51 -68 -76 -116 -86 -163
-5 -27 -8 -28 -70 -28 l-64 0 -17 53 c-12 37 -19 114 -25 271 -8 232 -19 325
-44 396 -9 25 -22 85 -30 135 -8 49 -25 128 -38 175 l-24 85 -6 -66 c-5 -52
-1 -85 19 -159 17 -69 24 -121 24 -194 1 -56 8 -137 16 -181 36 -190 28 -273
-34 -347 -60 -71 -198 -100 -288 -59 -56 26 -110 84 -129 140 -30 92 -55 251
-55 354 0 79 -6 123 -26 197 -23 83 -25 109 -22 215 4 137 18 176 87 238 120
108 305 71 386 -78 l17 -30 -6 35 c-3 19 -9 139 -12 267 l-7 232 -28 -39 c-82
-113 -237 -140 -348 -60 -61 45 -88 101 -122 254 -40 184 -45 360 -12 421 27
50 78 99 123 119 52 23 155 20 206 -5z m2129 -3 c102 -47 145 -132 145 -288 0
-177 -51 -305 -144 -363 -44 -26 -58 -30 -125 -30 -59 0 -85 5 -119 23 -23 12
-45 22 -47 22 -17 0 1 -210 30 -356 4 -19 9 -17 50 22 105 101 264 94 358 -16
56 -66 61 -98 53 -383 -3 -139 -11 -277 -16 -307 -5 -30 -14 -131 -19 -225 -9
-187 -20 -227 -74 -283 -113 -119 -301 -101 -388 37 l-28 43 -7 -27 c-7 -26
-1 -109 12 -172 6 -28 3 -33 -17 -37 -80 -16 -240 -27 -339 -24 l-114 3 -8 44
c-4 24 -19 62 -33 83 l-26 39 35 40 c19 23 42 58 51 78 9 20 20 43 25 53 5 9
17 45 27 80 16 56 17 105 15 466 l-3 404 39 51 c39 52 54 85 67 141 3 16 20
48 36 71 16 23 36 63 44 90 32 105 13 193 -85 390 -70 142 -96 235 -65 235 23
0 45 -12 39 -21 -3 -5 2 -6 10 -3 13 5 12 9 -7 25 -12 10 -16 18 -9 19 6 0 12
-5 12 -11 0 -6 9 -9 20 -6 13 3 18 1 13 -6 -4 -7 1 -6 10 2 13 10 17 10 17 1
0 -9 4 -9 17 1 11 10 14 10 9 2 -11 -20 12 -15 24 5 11 16 11 16 6 -2 -5 -13
-2 -17 9 -12 8 3 15 0 16 -7 0 -9 2 -9 6 1 2 6 9 12 14 12 6 0 7 -5 3 -11 -4
-7 -1 -10 7 -7 8 3 13 11 11 18 -2 10 1 10 14 -1 12 -9 15 -9 10 -1 -4 6 -2
12 4 12 6 0 13 -6 16 -13 9 -24 46 -12 61 19 25 47 65 85 78 74 9 -7 26 -4 56
10 61 27 141 26 204 -4z m385 -96 c5 0 12 5 15 10 4 6 11 8 16 4 5 -3 7 -9 5
-12 -2 -4 4 -19 15 -32 14 -18 17 -20 12 -6 -4 13 -3 17 4 13 6 -4 14 -1 17 5
3 7 4 4 3 -7 -1 -15 3 -19 18 -17 18 2 19 2 2 -8 -9 -6 -15 -15 -12 -21 3 -5
-2 -6 -12 -3 -13 4 -11 0 6 -14 13 -10 21 -24 17 -30 -4 -7 2 -9 16 -7 21 4
22 3 5 -9 -17 -13 -17 -14 0 -21 10 -4 29 -9 43 -11 13 -1 26 -8 28 -13 2 -6
10 -11 17 -11 7 0 15 -7 19 -15 3 -8 12 -15 21 -15 8 0 15 -5 15 -11 0 -5 5
-7 10 -4 6 3 10 2 10 -2 0 -10 62 -49 73 -45 4 1 7 -2 7 -8 0 -5 5 -10 11 -10
5 0 29 -8 52 -19 23 -10 62 -27 87 -38 55 -24 127 -93 136 -130 10 -38 -14
-251 -32 -285 -23 -44 -78 -92 -142 -122 l-59 -28 5 -87 c4 -80 2 -92 -23
-146 -20 -42 -52 -84 -111 -141 -45 -45 -107 -111 -138 -147 l-55 -65 77 -7
c242 -20 350 -72 413 -200 28 -58 31 -71 27 -137 -4 -90 -26 -136 -110 -240
-70 -85 -93 -105 -158 -138 -41 -21 -49 -22 -106 -11 -34 6 -77 11 -96 11
l-35 0 -6 133 c-4 85 -13 159 -26 207 -11 41 -39 143 -61 225 -22 83 -49 183
-60 223 -41 154 -53 328 -54 792 -1 306 3 465 12 535 7 55 14 106 14 113 1 9
5 9 12 2 13 -13 39 -13 31 0 -3 6 -3 16 2 23 5 9 8 7 11 -5 2 -10 7 -18 12
-18z m64 -3 c-9 -5 -18 -6 -21 -3 -4 3 -1 6 5 6 7 0 12 8 12 18 0 14 2 15 10
2 6 -10 4 -17 -6 -23z m-810 15 c3 -5 -1 -9 -9 -9 -8 0 -12 4 -9 9 3 4 7 8 9
8 2 0 6 -4 9 -8z m1949 -2086 c86 -31 151 -111 164 -202 4 -33 19 -68 48 -110
52 -75 69 -141 63 -243 -5 -92 -29 -148 -95 -221 -66 -74 -111 -95 -203 -95
-57 0 -84 5 -115 22 -76 40 -122 108 -132 194 -5 39 -15 61 -44 97 -109 131
-88 332 50 485 70 77 172 105 264 73z"/>
<path d="M15227 20125 c-4 -44 -9 -145 -12 -225 -4 -113 -3 -140 6 -120 7 14
14 101 16 200 6 195 1 268 -10 145z"/>
<path d="M13761 19974 c0 -11 3 -14 6 -6 3 7 2 16 -1 19 -3 4 -6 -2 -5 -13z"/>
<path d="M13772 19940 c0 -8 4 -26 8 -40 6 -20 8 -21 8 -5 0 11 -3 29 -8 40
-5 12 -8 14 -8 5z"/>
<path d="M10438 21661 c-87 -28 -160 -103 -174 -177 -3 -18 -4 -111 -3 -206 4
-166 5 -175 32 -230 16 -32 39 -66 53 -77 37 -29 37 -62 0 -89 -44 -33 -84
-97 -92 -148 -9 -65 22 -299 47 -352 27 -55 81 -99 148 -118 127 -38 262 29
305 151 l14 40 1 -56 c3 -166 98 -272 245 -273 102 0 187 52 227 139 16 35 19
67 19 250 0 231 -6 259 -66 319 -70 70 -195 90 -287 46 -93 -44 -136 -129
-138 -269 l-1 -76 -18 116 c-19 128 -38 177 -81 213 -39 34 -39 75 1 104 16
12 42 43 57 69 l28 48 -3 195 c-4 213 -13 253 -70 313 -56 59 -171 91 -244 68z"/>
<path d="M9939 20919 c-77 -12 -142 -57 -175 -121 -37 -72 -43 -303 -10 -383
38 -91 121 -144 224 -145 73 0 114 15 167 61 62 55 78 104 83 251 6 185 -26
262 -131 312 -63 29 -98 35 -158 25z"/>
<path d="M10518 20213 c6 -2 18 -2 25 0 6 3 1 5 -13 5 -14 0 -19 -2 -12 -5z"/>
<path d="M10446 20175 c-56 -20 -107 -65 -135 -120 -22 -43 -25 -63 -29 -195
-5 -185 8 -240 73 -305 115 -116 311 -88 389 56 28 50 29 61 34 200 4 124 2
156 -14 205 -42 133 -187 206 -318 159z"/>
<path d="M14410 17064 c-59 -26 -101 -65 -126 -118 -21 -44 -24 -66 -24 -161
0 -133 10 -174 56 -225 51 -56 114 -84 188 -83 113 1 201 64 231 167 18 61 19
227 1 277 -34 97 -125 159 -230 159 -34 -1 -77 -8 -96 -16z"/>
<path d="M14383 16386 c-56 -26 -103 -81 -124 -143 -16 -51 -6 -285 15 -344
47 -128 170 -192 298 -155 67 19 129 71 158 132 21 45 21 56 15 198 -10 207
-34 262 -140 312 -68 33 -152 32 -222 0z"/>
<path d="M13798 16386 c-75 -20 -123 -58 -153 -121 -26 -53 -27 -60 -22 -163
14 -256 42 -341 132 -397 41 -25 60 -30 124 -33 67 -2 82 1 126 25 101 57 140
146 125 283 -20 179 -33 248 -53 289 -48 95 -171 147 -279 117z"/>
<path d="M14913 16325 c-28 -15 -63 -41 -78 -60 -46 -61 -55 -104 -55 -269 l0
-152 33 -54 c82 -135 270 -157 382 -45 61 61 75 113 75 287 0 120 -3 144 -21
183 -57 121 -212 171 -336 110z"/>
<path d="M13361 15914 c0 -11 3 -14 6 -6 3 7 2 16 -1 19 -3 4 -6 -2 -5 -13z"/>
<path d="M14392 15642 c-66 -24 -114 -69 -143 -136 -20 -47 -22 -67 -23 -261
-1 -207 -1 -211 25 -260 49 -97 164 -151 269 -127 104 24 171 92 190 191 5 30
10 137 10 238 0 204 -6 232 -63 291 -70 73 -171 97 -265 64z"/>
<path d="M16312 21168 c-6 -18 -13 -67 -15 -109 -5 -77 -19 -117 -63 -176 -36
-48 -40 -85 -15 -144 12 -27 26 -83 31 -122 15 -118 21 -131 65 -140 28 -5 25
-32 28 248 3 226 -4 475 -12 475 -5 0 -14 -15 -19 -32z"/>
<path d="M4199 20642 c-630 -665 -1224 -1389 -1789 -2182 -608 -852 -842
-1275 -1038 -1881 -211 -649 -307 -1192 -357 -2034 -44 -742 -49 -927 -50
-1645 0 -735 4 -850 46 -1271 71 -721 219 -1493 404 -2103 187 -618 432 -1219
777 -1911 260 -519 505 -948 886 -1550 94 -148 237 -376 319 -505 313 -496
677 -999 1004 -1390 307 -367 824 -898 1179 -1210 372 -328 749 -607 1245
-921 l180 -114 170 -6 c139 -5 188 -11 270 -33 197 -53 323 -67 695 -76 190
-4 390 -14 445 -21 74 -10 291 -13 825 -14 800 0 784 -1 960 65 95 36 233 77
285 85 70 10 70 22 1 28 -46 4 -86 17 -135 42 l-71 35 -150 0 c-142 0 -167 3
-403 51 -139 28 -293 54 -342 59 -53 5 -233 45 -434 95 -312 77 -352 85 -439
85 -235 0 -433 38 -654 124 -80 32 -154 52 -235 66 -127 21 -258 55 -338 88
-198 80 -829 394 -929 462 -39 26 -104 77 -143 114 -40 36 -99 84 -130 108
-73 53 -205 185 -398 398 -82 91 -235 253 -340 360 -193 197 -210 220 -389
498 -37 57 -107 157 -156 221 -48 65 -138 192 -198 282 -60 90 -192 274 -292
409 -234 313 -274 375 -370 572 -58 121 -88 198 -115 298 -20 74 -59 189 -85
255 -27 66 -63 165 -80 220 -18 55 -49 132 -69 170 -21 39 -77 143 -124 232
-48 89 -119 235 -158 325 -39 89 -105 237 -146 328 -42 91 -95 217 -119 280
-24 63 -59 157 -79 209 -20 51 -54 160 -75 243 -35 130 -84 267 -159 441 -36
84 -191 625 -211 737 -5 30 -14 172 -20 315 -5 143 -15 316 -20 385 -6 69 -15
231 -20 360 -6 160 -16 268 -30 340 -11 58 -29 176 -40 263 -11 87 -29 199
-40 250 -10 51 -30 199 -44 330 l-26 238 0 1099 c0 892 3 1120 14 1207 8 59
17 168 21 242 7 156 20 226 74 394 22 67 53 169 70 227 30 104 77 227 164 430
68 156 153 462 182 653 27 173 56 292 111 452 66 191 132 420 143 501 12 86
36 174 119 442 28 89 56 200 63 245 6 45 38 177 70 292 33 116 71 251 84 300
15 52 64 169 115 275 175 362 271 590 334 790 26 80 69 197 97 260 65 150 110
260 208 510 76 196 104 290 85 290 -5 -1 -97 -94 -205 -208z"/>
<path d="M16291 20004 c-56 -17 -106 -56 -108 -82 -1 -12 10 -31 25 -44 14
-13 50 -47 79 -75 l53 -53 0 135 c0 74 -1 135 -2 134 -2 -1 -23 -7 -47 -15z"/>
<path d="M23120 13779 c0 -100 -80 -430 -164 -684 -57 -168 -85 -283 -111
-453 -9 -56 -27 -140 -41 -187 -28 -97 -48 -201 -65 -330 -6 -49 -23 -142 -39
-205 -15 -63 -38 -167 -50 -230 -12 -63 -35 -155 -50 -205 -16 -49 -40 -153
-55 -230 -31 -169 -68 -312 -107 -419 -28 -78 -59 -208 -72 -311 -4 -27 -18
-92 -32 -143 -14 -52 -36 -155 -49 -230 -31 -176 -217 -923 -250 -1005 -14
-34 -50 -146 -80 -248 -30 -103 -74 -231 -98 -285 -24 -55 -54 -133 -67 -174
-32 -110 -143 -402 -205 -546 -30 -68 -106 -217 -169 -332 -63 -114 -143 -268
-178 -342 -36 -74 -92 -182 -125 -240 -33 -58 -99 -182 -146 -276 -47 -94
-118 -219 -159 -278 -40 -60 -93 -141 -118 -181 -107 -172 -226 -325 -499
-645 -248 -289 -357 -405 -481 -509 -159 -134 -324 -297 -424 -420 -57 -70
-144 -163 -192 -207 -49 -43 -132 -120 -184 -170 -207 -197 -499 -402 -805
-564 -140 -74 -410 -234 -605 -358 -91 -58 -217 -133 -280 -167 -185 -99 -293
-161 -372 -211 -40 -26 -118 -71 -173 -99 -55 -29 -131 -71 -170 -94 -130 -77
-322 -123 -580 -141 -151 -10 -325 -35 -530 -75 -71 -14 -200 -30 -285 -35
-269 -17 -559 -75 -658 -132 -55 -31 -177 -121 -288 -213 -34 -27 -98 -72
-143 -98 l-81 -48 0 -45 c0 -24 1 -47 1 -51 1 -5 32 -13 68 -20 36 -6 111 -27
166 -47 61 -21 145 -41 215 -51 63 -8 167 -25 230 -36 63 -10 187 -26 275 -35
179 -17 342 -41 550 -81 133 -26 155 -27 450 -28 l310 0 155 44 c272 76 330
90 423 100 64 7 121 20 187 46 52 20 136 47 185 60 50 13 149 44 220 69 72 25
248 72 392 105 285 65 448 116 618 193 61 28 130 57 155 64 25 8 62 20 82 27
112 36 624 492 987 877 799 849 1221 1425 2021 2759 268 447 404 693 594 1071
181 358 231 468 336 730 168 419 257 702 379 1200 153 624 245 1180 297 1795
21 257 30 1106 15 1446 -20 440 -109 1520 -127 1538 -2 2 -4 -2 -4 -10z"/>
<path d="M12445 2273 c-17 -8 -41 -22 -55 -29 -40 -22 -111 -17 -163 10 -44
24 -48 24 -99 10 -29 -8 -102 -23 -163 -35 -60 -11 -155 -33 -210 -49 -55 -16
-119 -34 -142 -40 l-43 -11 25 -38 c28 -41 34 -94 21 -172 l-8 -45 93 -26 c52
-15 132 -38 179 -53 l85 -26 500 4 c334 3 517 8 550 16 28 7 93 16 146 20 59
6 115 17 146 31 43 18 53 28 67 64 21 55 60 92 122 115 26 10 50 23 52 29 6
20 -78 99 -126 120 -61 26 -141 39 -307 47 -71 4 -164 13 -205 21 -67 12 -80
12 -124 -2 -58 -20 -104 -15 -177 19 -74 34 -127 41 -164 20z"/>
<path d="M11125 1679 c-22 -10 -65 -26 -95 -35 -30 -8 -110 -33 -177 -55 -67
-21 -130 -39 -140 -39 -21 0 -176 -49 -251 -79 -29 -12 -108 -32 -176 -46
l-124 -25 -733 0 c-569 0 -768 4 -884 15 -82 8 -217 15 -300 14 l-150 0 205
-73 c264 -95 403 -147 515 -196 267 -116 1029 -309 1455 -369 519 -73 1200
-109 1808 -94 l162 4 0 349 0 348 -197 4 -198 5 -128 41 c-70 23 -173 51 -229
62 -123 25 -183 56 -253 132 -30 32 -58 58 -62 57 -4 0 -26 -9 -48 -20z"/>
<path d="M13630 1584 c-49 -35 -183 -98 -261 -122 -36 -11 -104 -23 -150 -27
-46 -4 -122 -13 -168 -21 -49 -8 -155 -14 -257 -14 l-174 0 0 -340 0 -340 40
0 c75 0 726 51 970 76 846 86 1562 205 2215 369 238 59 748 206 741 212 -2 2
-52 -10 -112 -27 -198 -58 -231 -61 -579 -61 -346 0 -295 -5 -720 70 -60 11
-164 25 -230 31 -148 13 -324 36 -430 55 -44 8 -133 22 -198 30 -80 10 -161
30 -253 60 -82 27 -154 45 -182 45 -42 0 -88 6 -187 24 -22 4 -39 -1 -65 -20z"/>
</g>
</svg>
